Simulation
nRows=27
nColumns=15
endheader
time  TH_x TH_y TH_z SC_y  SC_z  SC_x  AC_y  AC_z  AC_x  GH_y  GH_z  GH_yy  EL_x  PS_y
1.9499999999999993  0.000000  0.000000  0.000000  -29.66714854122131  9.682203869971318  24.83700613711672  62.643936383401964  11.36985194819436  0.5113594652438812  47.993692187078274  58.430520174375275  -44.44479846890234  22.3620556967048  0.000000
1.9889999999999992  0.000000  0.000000  0.000000  -29.364927682305037  9.346438106254674  24.374196868766152  62.430990015812355  11.101414600783524  -0.27949603927594285  48.38930238405527  57.557081688761784  -43.95428824830527  22.57542588122419  0.000000
2.027999999999999  0.000000  0.000000  0.000000  -29.01817515951434  8.961108550671923  23.8666598588096  62.206721121946934  10.799426729884553  -1.134292672333418  48.831187441952174  56.57463052101125  -43.526828043386594  22.77928172812004  0.000000
2.0669999999999993  0.000000  0.000000  0.000000  -28.63272265458962  8.530084739173597  23.316265629717787  61.97612386451957  10.467688635319893  -2.0334388806566692  49.3187765608825  55.497032858121706  -43.16690345237531  22.961156099134627  0.000000
2.1059999999999994  0.000000  0.000000  0.000000  -28.21633991918074  8.059360410281661  22.72342560574753  61.73823454445949  10.114253618617834  -2.9589959644350277  49.831850511887424  54.34038714120252  -42.82612445344931  23.110077339151445  0.000000
2.144999999999999  0.000000  0.000000  0.000000  -27.777438911390895  7.555289466244709  22.084682836571776  61.48995172179012  9.750271868982281  -3.8937597977143  50.336747271869605  53.12276895442692  -42.42953077856401  23.218385223951653  0.000000
2.1839999999999993  0.000000  0.000000  0.000000  -27.326524086458228  7.023835542472869  21.389212721777785  61.23065691354815  9.387939396427488  -4.817954762094401  50.797694746523575  51.86397965168435  -41.91454656913118  23.28576969862309  0.000000
2.2229999999999994  0.000000  0.000000  0.000000  -26.88201288794571  6.471063975372032  20.61764015078731  60.96700436098779  9.03703202242664  -5.7052952599771425  51.183220225330345  50.58563612582617  -41.25344060211693  23.32211514130291  0.000000
2.261999999999999  0.000000  0.000000  0.000000  -26.472992062122906  5.903817932721571  19.742464315740186  60.71324161432245  8.703047743371439  -6.520346897619916  51.463164708994285  49.30883554460803  -40.445446767613355  23.345315736128704  0.000000
2.3009999999999993  0.000000  0.000000  0.000000  -26.132282225483088  5.331531946824574  18.7326004964384  60.485054399810856  8.38968568034546  -7.22110670422939  51.602809419562185  48.0471299019968  -39.48768962533594  23.375099718475237  0.000000
2.339999999999999  0.000000  0.000000  0.000000  -25.883707957376867  4.765556372343153  17.562534430576648  60.289683594491684  8.10445646220315  -7.769008154223208  51.56550329863721  46.79877366793107  -38.35217575540872  23.429687704247623  0.000000
2.378999999999999  0.000000  0.000000  0.000000  -25.73375932863116  4.216118314104068  16.221273011175178  60.11954254982118  7.860913629272536  -8.139921060647595  51.32210505775409  45.54634974709417  -36.98601348687556  23.52687402364895  0.000000
2.4179999999999993  0.000000  0.000000  0.000000  -25.67225812721643  3.6904198349802955  14.715746617523017  59.955082550377576  7.674997071013143  -8.329102215951139  50.854276849686116  44.26471844286888  -35.32906211633622  23.684058776353417  0.000000
2.456999999999999  0.000000  0.000000  0.000000  -25.681192750867357  3.1930951217070884  13.067884185271307  59.77524305832415  7.557908201103649  -8.348925451612782  50.14838705448948  42.932974691105585  -33.33460872383281  23.91646246823432  0.000000
2.495999999999999  0.000000  0.000000  0.000000  -25.744683952671714  2.726428680926678  11.309454334146473  59.56438666038637  7.51279515057022  -8.222320271498804  49.19281796461356  41.54141707324063  -30.984457530984972  24.235598727228513  0.000000
2.5349999999999993  0.000000  0.000000  0.000000  -25.852056274512414  2.29053404756365  9.477216795860098  59.31566146293822  7.535514096251421  -7.976563779335993  47.978062833413595  40.092393946298145  -28.2926314018896  24.645794134640578  0.000000
2.573999999999999  0.000000  0.000000  0.000000  -25.995911351017767  1.8843884715387373  7.609397864903815  59.03047253478314  7.616712698706188  -7.638067378920689  46.50152050501895  38.596647301321326  -25.30312615110935  25.138387215002517  0.000000
2.612999999999999  0.000000  0.000000  0.000000  -26.169485843208147  1.5066464886752529  5.742940492315164  58.71706434541113  7.7440164270938325  -7.2304393686267625  44.77422298639779  37.06867653204674  -22.087231840478914  25.686927954274  0.000000
2.6519999999999992  0.000000  0.000000  0.000000  -26.366172007917857  1.156167239499829  3.9123761307692466  58.38635578602378  7.903846253206988  -6.7750366462842635  42.82696796348969  35.52170373265857  -18.737711554625086  26.248692364018684  0.000000
2.690999999999999  0.000000  0.000000  0.000000  -26.580837500079046  0.8330605158831359  2.1495674764795165  58.04702119529443  8.084161904401446  -6.29354337145045  40.71252656474278  33.963461145547846  -15.357816099343607  26.774297367892768  0.000000
2.729999999999999  0.000000  0.000000  0.000000  -26.811080943511897  0.5398047006937127  0.48428989723571  57.70067014932019  8.276309484802377  -5.80998744288299  38.502693065479896  32.394369450622115  -12.046004812368022  27.219926284746276  0.000000
2.768999999999999  0.000000  0.000000  0.000000  -27.05733393221946  0.2813314771359996  -1.0553068098574725  57.34100745262182  8.4751627101192  -5.351629750195139  36.281786954061864  30.809114678160014  -8.885409450910771  27.555361130574042  0.000000
2.807999999999999  0.000000  0.000000  0.000000  -27.321187991494945  0.06382266050070219  -2.442770989302809  56.95630744650646  8.677236843073292  -4.947169044130416  34.13767003694325  29.200025053422294  -5.939621581615238  27.765459256500733  0.000000
2.846999999999999  0.000000  0.000000  0.000000  -27.60291287719038  -0.1070746913815117  -3.6543958014376416  56.5350989483287  8.878345685230318  -4.623300910092676  32.15245941651654  27.560462832336867  -3.255908776013038  27.847104214831987  0.000000
2.885999999999999  0.000000  0.000000  0.000000  -27.89902081690582  -0.2280792823965279  -4.670752881085926  56.071521158559946  9.071492445923264  -4.400740210701672  30.39046511348976  25.888290570333268  -0.8648285022743136  27.806130555360205  0.000000
2.924999999999999  0.000000  0.000000  0.000000  -28.199292029340253  -0.29978048938218144  -5.478194036250834  55.569258270454895  9.247301487067768  -4.291515388148151  28.882461873189115  24.187577908325046  1.2277079940789952  27.65727153031076  0.000000
2.963999999999999  0.000000  0.000000  0.000000  -28.487053383856264  -0.32780655912798823  -6.070632478421865  55.042829849096364  9.395252127976981  -4.29772280195821  27.60843566435495  22.470298280980924  3.0521644305505626  27.4263217935934  0.000000
